<?xml version="1.0" encoding="UTF-8"?>
<!DOCTYPE svg PUBLIC "-//W3C//DTD SVG 1.1//EN" "http://www.w3.org/Graphics/SVG/1.1/DTD/svg11.dtd">
<!-- Creator: CorelDRAW 2017 -->
<svg xmlns="http://www.w3.org/2000/svg" xml:space="preserve" width="6.5708mm" height="7.5094mm" version="1.1" style="shape-rendering:geometricPrecision; text-rendering:geometricPrecision; image-rendering:optimizeQuality; fill-rule:evenodd; clip-rule:evenodd"
viewBox="0 0 2.48 2.83"
 xmlns:xlink="http://www.w3.org/1999/xlink">
 <defs>
  <style type="text/css">
   <![CDATA[
    .fil0 {fill:#FEFEFE}
   ]]>
  </style>
 </defs>
 <g id="Capa_x0020_1">
  <metadata id="CorelCorpID_0Corel-Layer"/>
  <g id="_1773383404176">
   <g>
    <path class="fil0" d="M0.18 2.48l0.18 0 0 0.18c0,0.1 0.08,0.18 0.18,0.18l1.77 0c0.1,0 0.18,-0.08 0.18,-0.18l-0 -2.12c0,-0.1 -0.08,-0.18 -0.18,-0.18l-0.18 0 0 -0.18c0,-0.1 -0.08,-0.18 -0.18,-0.18l-1.77 0c-0.1,0 -0.18,0.08 -0.18,0.18l0 2.12c0,0.1 0.08,0.18 0.18,0.18zm2.12 -1.95l0 2.12 -1.77 0 0 -0.18 1.42 0c0.1,0 0.18,-0.08 0.18,-0.18l0 -1.77 0.18 0zm-0.62 -0.18c0.05,0 0.09,0.04 0.09,0.09 0,0.05 -0.04,0.09 -0.09,0.09l-0.72 0c-0.05,0 -0.09,-0.04 -0.09,-0.09 0,-0.05 0.04,-0.09 0.09,-0.09l0.72 0zm-1.25 0.53l1.25 0c0.05,0 0.09,0.04 0.09,0.09 0,0.05 -0.04,0.09 -0.09,0.09l-1.25 0c-0.05,0 -0.09,-0.04 -0.09,-0.09 0,-0.05 0.04,-0.09 0.09,-0.09zm0 0.53l1.25 0c0.05,0 0.09,0.04 0.09,0.09 0,0.05 -0.04,0.09 -0.09,0.09l-1.25 0c-0.05,0 -0.09,-0.04 -0.09,-0.09 0,-0.05 0.04,-0.09 0.09,-0.09zm0 0.53l1.25 0c0.05,0 0.09,0.04 0.09,0.09 0,0.05 -0.04,0.09 -0.09,0.09l-1.25 0c-0.05,0 -0.09,-0.04 -0.09,-0.09 0,-0.05 0.04,-0.09 0.09,-0.09z"/>
   </g>
  </g>
 </g>
</svg>
