<?xml version="1.0" encoding="UTF-8"?>
<!DOCTYPE svg PUBLIC "-//W3C//DTD SVG 1.1//EN" "http://www.w3.org/Graphics/SVG/1.1/DTD/svg11.dtd">
<!-- Creator: CorelDRAW 2017 -->
<svg xmlns="http://www.w3.org/2000/svg" xml:space="preserve" width="3.6819mm" height="7.5094mm" version="1.1" style="shape-rendering:geometricPrecision; text-rendering:geometricPrecision; image-rendering:optimizeQuality; fill-rule:evenodd; clip-rule:evenodd"
viewBox="0 0 0.78 1.58"
 xmlns:xlink="http://www.w3.org/1999/xlink">
 <defs>
  <style type="text/css">
   <![CDATA[
    .fil0 {fill:#FEFEFE}
   ]]>
  </style>
 </defs>
 <g id="Capa_x0020_1">
  <metadata id="CorelCorpID_0Corel-Layer"/>
  <g id="_1773341158928">
   <g>
    <path class="fil0" d="M0.5 1.57c0.01,0.01 0.02,0.01 0.04,0.01 0.01,0 0.03,-0 0.04,-0.01l0.19 -0.19c0.02,-0.02 0.02,-0.05 0,-0.07 -0.02,-0.02 -0.05,-0.02 -0.07,0l-0.11 0.11 0 -0.87c0,-0.03 -0.02,-0.05 -0.05,-0.05 -0.03,0 -0.05,0.02 -0.05,0.05l0 0.87 -0.11 -0.11c-0.02,-0.02 -0.05,-0.02 -0.07,0 -0.02,0.02 -0.02,0.05 0,0.07l0.2 0.2zm-0.26 -0.48c0.03,0 0.05,-0.02 0.05,-0.05l0 -0.87 0.11 0.11c0.02,0.02 0.05,0.02 0.07,0 0.02,-0.02 0.02,-0.05 0,-0.07l-0.2 -0.2c-0.01,-0.01 -0.02,-0.01 -0.04,-0.01 -0.01,0 -0.03,0 -0.04,0.01l-0.19 0.19c-0.02,0.02 -0.02,0.05 0,0.07 0.02,0.02 0.05,0.02 0.07,0l0.11 -0.11 0 0.87c0,0.03 0.02,0.05 0.05,0.05z"/>
   </g>
  </g>
 </g>
</svg>
